<svg width="401.709" height="73.243" viewBox="0 0 401.709 73.243" xmlns="http://www.w3.org/2000/svg"><g id="svgGroup" stroke-linecap="round" fill-rule="evenodd" font-size="9pt" stroke="#fef5e4" stroke-width="0.25mm" fill="#fef5e4" style="stroke:#fef5e4;stroke-width:0.25mm;fill:#fef5e4"><path d="M 69.043 72.754 L 64.453 72.754 L 64.453 0 L 69.043 0 L 69.043 33.448 L 112.598 33.448 L 112.598 0 L 117.188 0 L 117.188 72.754 L 112.598 72.754 L 112.598 37.696 L 69.043 37.696 L 69.043 72.754 Z M 208.398 72.754 L 203.809 72.754 L 203.809 0 L 226.367 0 A 29.607 29.607 0 0 1 232.022 0.514 A 21.521 21.521 0 0 1 238.208 2.686 Q 243.164 5.372 245.825 10.206 A 21.421 21.421 0 0 1 248.276 17.911 A 27.161 27.161 0 0 1 248.486 21.338 A 25.208 25.208 0 0 1 247.842 27.16 A 19.987 19.987 0 0 1 245.825 32.373 Q 243.164 37.11 238.208 39.771 A 21.741 21.741 0 0 1 231.833 41.958 A 30.049 30.049 0 0 1 226.367 42.432 L 206.299 42.432 L 206.299 38.184 L 226.221 38.184 A 24.55 24.55 0 0 0 230.731 37.79 A 17.554 17.554 0 0 0 235.693 36.109 A 14.563 14.563 0 0 0 241.772 30.249 A 16.382 16.382 0 0 0 243.634 24.777 A 21.7 21.7 0 0 0 243.896 21.338 A 21.273 21.273 0 0 0 243.43 16.781 A 16.338 16.338 0 0 0 241.772 12.33 A 14.944 14.944 0 0 0 235.693 6.348 A 17.134 17.134 0 0 0 230.734 4.611 Q 228.64 4.206 226.248 4.2 A 28.758 28.758 0 0 0 226.172 4.2 L 208.398 4.2 L 208.398 72.754 Z M 135.547 72.754 L 130.664 72.754 L 157.617 0 L 163.232 0 L 190.332 72.754 L 185.498 72.754 L 166.26 20.801 A 745.76 745.76 0 0 1 164.801 16.687 A 926.738 926.738 0 0 1 163.257 12.256 A 494.923 494.923 0 0 1 161.603 7.386 A 680.288 680.288 0 0 1 159.814 1.954 L 160.986 1.954 A 400.974 400.974 0 0 1 159.229 7.428 A 292.196 292.196 0 0 1 157.568 12.33 A 649.113 649.113 0 0 1 156.006 16.755 A 500.602 500.602 0 0 1 154.541 20.801 L 135.547 72.754 Z M 263.623 72.754 L 258.74 72.754 L 285.693 0 L 291.309 0 L 318.408 72.754 L 313.574 72.754 L 294.336 20.801 A 745.76 745.76 0 0 1 292.877 16.687 A 926.738 926.738 0 0 1 291.333 12.256 A 494.923 494.923 0 0 1 289.679 7.386 A 680.288 680.288 0 0 1 287.891 1.954 L 289.063 1.954 A 400.974 400.974 0 0 1 287.305 7.428 A 292.196 292.196 0 0 1 285.645 12.33 A 649.113 649.113 0 0 1 284.082 16.755 A 500.602 500.602 0 0 1 282.617 20.801 L 263.623 72.754 Z M 350.391 4.248 L 327.148 4.248 L 327.148 0 L 378.223 0 L 378.223 4.248 L 354.98 4.248 L 354.98 72.754 L 350.391 72.754 L 350.391 4.248 Z M 25.586 72.754 L 0 72.754 L 0 0 L 23.682 0 A 30.854 30.854 0 0 1 28.703 0.387 Q 31.486 0.847 33.797 1.851 A 17.949 17.949 0 0 1 34.839 2.344 A 16.693 16.693 0 0 1 39.777 6.119 A 15.654 15.654 0 0 1 41.748 8.912 Q 44.092 13.135 44.092 18.75 A 23.271 23.271 0 0 1 43.76 22.773 A 17.682 17.682 0 0 1 42.676 26.539 A 15.924 15.924 0 0 1 40.334 30.498 A 14.323 14.323 0 0 1 38.721 32.178 A 14.176 14.176 0 0 1 32.764 35.303 L 32.764 35.694 A 12.865 12.865 0 0 1 38.139 37.403 A 16.117 16.117 0 0 1 39.575 38.331 A 16.928 16.928 0 0 1 43.919 42.976 A 20.685 20.685 0 0 1 44.873 44.629 A 17.979 17.979 0 0 1 46.635 50.088 A 23.716 23.716 0 0 1 46.924 53.858 A 22.038 22.038 0 0 1 46.288 59.254 A 18.086 18.086 0 0 1 44.531 63.697 A 16.031 16.031 0 0 1 38.531 69.734 A 19.822 19.822 0 0 1 37.378 70.362 A 21.078 21.078 0 0 1 32.233 72.118 Q 29.211 72.754 25.586 72.754 Z M 4.59 37.842 L 4.59 68.506 L 25.488 68.506 A 26.298 26.298 0 0 0 30.35 68.085 Q 33.091 67.569 35.24 66.42 A 13.19 13.19 0 0 0 38.062 64.405 A 13.654 13.654 0 0 0 42.402 54.858 A 18.464 18.464 0 0 0 42.432 53.809 A 16.845 16.845 0 0 0 41.652 48.619 A 15.076 15.076 0 0 0 40.332 45.655 A 15.164 15.164 0 0 0 34.448 39.942 A 16.652 16.652 0 0 0 28.535 38.027 A 21.342 21.342 0 0 0 25.684 37.842 L 4.59 37.842 Z M 4.59 4.248 L 4.59 33.741 L 25.146 33.741 A 17.888 17.888 0 0 0 28.808 33.384 A 12.878 12.878 0 0 0 33.008 31.739 A 13.25 13.25 0 0 0 37.939 26.343 A 16.152 16.152 0 0 0 39.607 20.078 A 19.345 19.345 0 0 0 39.648 18.799 Q 39.648 12.061 35.474 8.155 A 13.619 13.619 0 0 0 29.911 5.064 Q 27.83 4.452 25.339 4.299 A 27.84 27.84 0 0 0 23.633 4.248 L 4.59 4.248 Z M 251.709 72.754 L 246.436 72.754 L 228.662 39.747 L 233.838 39.747 L 251.709 72.754 Z M 178.76 49.854 L 142.236 49.854 L 142.236 45.655 L 178.76 45.655 L 178.76 49.854 Z M 306.836 49.854 L 270.313 49.854 L 270.313 45.655 L 306.836 45.655 L 306.836 49.854 Z M 395.08 72.131 A 3.756 3.756 0 0 0 397.803 73.243 A 4.491 4.491 0 0 0 397.853 73.242 A 3.758 3.758 0 0 0 400.562 72.095 A 4.593 4.593 0 0 0 400.597 72.059 A 3.756 3.756 0 0 0 401.709 69.336 A 4.491 4.491 0 0 0 401.709 69.286 A 3.758 3.758 0 0 0 400.562 66.578 A 4.593 4.593 0 0 0 400.526 66.542 A 3.756 3.756 0 0 0 397.803 65.43 A 4.491 4.491 0 0 0 397.752 65.43 A 3.758 3.758 0 0 0 395.044 66.578 A 4.593 4.593 0 0 0 395.008 66.614 A 3.756 3.756 0 0 0 393.896 69.336 A 4.491 4.491 0 0 0 393.897 69.387 A 3.758 3.758 0 0 0 395.044 72.095 A 4.593 4.593 0 0 0 395.08 72.131 Z" vector-effect="non-scaling-stroke"/></g></svg>